<svg width="18" height="20" viewBox="0 0 18 20" fill="none" xmlns="http://www.w3.org/2000/svg">
<path d="M10.6406 17.5695C10.918 17.3219 11.3438 17.3065 11.64 17.5495C11.9659 17.8168 12.0116 18.2954 11.7421 18.6186C11.0777 19.4802 10.0499 19.9899 8.95625 20L8.73913 19.9909C7.73083 19.9177 6.7976 19.4205 6.17931 18.6186L6.1136 18.5269C5.92044 18.2101 5.98512 17.7925 6.28134 17.5495C6.60718 17.2822 7.0898 17.3275 7.35929 17.6507C7.47764 17.8076 7.61807 17.9469 7.77627 18.0642C8.19915 18.3765 8.73019 18.5084 9.25155 18.4308C9.7729 18.3531 10.2415 18.0723 10.5532 17.6507H10.5621L10.6406 17.5695ZM8.96512 0C12.0348 0 15.4772 2.16454 15.8675 5.64012V7.45271C16.0008 8.10691 16.307 8.71423 16.7548 9.21249C16.7813 9.24259 16.805 9.27498 16.8257 9.30928C17.2317 9.92038 17.4646 10.6285 17.5 11.3594L17.4734 11.5442C17.504 12.5445 17.1701 13.5223 16.533 14.2983C15.7193 15.1763 14.6069 15.7247 13.41 15.8381C10.4617 16.1617 7.48632 16.1617 4.53799 15.8381C3.35854 15.717 2.26557 15.1687 1.46827 14.2983C0.820616 13.5334 0.476747 12.5603 0.501222 11.5618V11.4386C0.55 10.6858 0.801205 9.95964 1.22873 9.33568L1.2997 9.24769C1.74432 8.74733 2.05006 8.14088 2.1869 7.4879V5.67532L2.23596 5.57406C2.38512 5.31699 2.67563 5.16664 2.97989 5.19956C3.32218 5.23659 3.59705 5.4964 3.65079 5.8337V7.64628C3.65424 7.67845 3.65424 7.7109 3.65079 7.74307C3.46606 8.65082 3.04382 9.49442 2.42645 10.1892C2.1887 10.5648 2.05412 10.9955 2.03608 11.4386V11.6322C2.01638 12.2554 2.22433 12.8647 2.62163 13.348C3.17247 13.9123 3.90907 14.2619 4.69768 14.3335C7.55197 14.6415 10.4315 14.6415 13.2858 14.3335C14.096 14.2597 14.8506 13.8934 15.4062 13.304C15.784 12.8322 15.9819 12.2433 15.9651 11.641V11.4386C15.9469 10.994 15.8157 10.5612 15.5836 10.1804C14.9406 9.4935 14.4935 8.64922 14.2883 7.73427C14.2849 7.7021 14.2849 7.66966 14.2883 7.63748V5.8161C14.031 3.15882 11.3606 1.51342 9.0361 1.51342C8.04786 1.51116 7.07587 1.76277 6.2148 2.24373L6.10934 2.29608C5.89253 2.38363 5.64447 2.36826 5.43831 2.24943C5.19779 2.1108 5.05241 1.85333 5.05891 1.5775C5.06541 1.30168 5.22276 1.05122 5.46955 0.923889C6.53654 0.326071 7.73966 0.00808272 8.96512 0Z" fill="white"/>
</svg>
