<svg width="32" height="32" viewBox="0 0 32 32" fill="none" xmlns="http://www.w3.org/2000/svg">
<path fill-rule="evenodd" clip-rule="evenodd" d="M16.6666 1.99992C16.6666 1.63173 16.3681 1.33325 15.9999 1.33325C15.6317 1.33325 15.3333 1.63173 15.3333 1.99992V4.66659C15.3333 5.03477 15.6317 5.33325 15.9999 5.33325C16.3681 5.33325 16.6666 5.03477 16.6666 4.66659V1.99992ZM17.3333 10.824C17.7424 10.4578 17.9999 9.92559 17.9999 9.33325C17.9999 8.22865 17.1045 7.33325 15.9999 7.33325C14.8953 7.33325 13.9999 8.22865 13.9999 9.33325C13.9999 9.92559 14.2575 10.4578 14.6666 10.824V11.9999H9.33325C8.22865 11.9999 7.33325 12.8953 7.33325 13.9999V26.6666C7.33325 27.7712 8.22865 28.6666 9.33325 28.6666H22.6666C23.7712 28.6666 24.6666 27.7712 24.6666 26.6666V13.9999C24.6666 12.8953 23.7712 11.9999 22.6666 11.9999H17.3333V10.824ZM10.6666 16.6666C11.403 16.6666 11.9999 16.0697 11.9999 15.3333C11.9999 14.5969 11.403 13.9999 10.6666 13.9999C9.93019 13.9999 9.33325 14.5969 9.33325 15.3333C9.33325 16.0697 9.93019 16.6666 10.6666 16.6666ZM9.33325 19.3333C9.33325 18.5969 9.93019 17.9999 10.6666 17.9999H17.3333C18.0697 17.9999 18.6666 18.5969 18.6666 19.3333V20.6666C18.6666 21.403 18.0697 21.9999 17.3333 21.9999H10.6666C9.93019 21.9999 9.33325 21.403 9.33325 20.6666V19.3333ZM20.6666 18.9999C20.6666 18.4477 21.1143 17.9999 21.6666 17.9999C22.2189 17.9999 22.6666 18.4477 22.6666 18.9999V20.9999C22.6666 21.5522 22.2189 21.9999 21.6666 21.9999C21.1143 21.9999 20.6666 21.5522 20.6666 20.9999V18.9999ZM15.9999 15.3333C15.9999 16.0697 15.403 16.6666 14.6666 16.6666C13.9302 16.6666 13.3333 16.0697 13.3333 15.3333C13.3333 14.5969 13.9302 13.9999 14.6666 13.9999C15.403 13.9999 15.9999 14.5969 15.9999 15.3333ZM20.6666 8.66659C20.2984 8.66659 19.9999 8.96505 19.9999 9.33325C19.9999 9.70145 20.2984 9.99992 20.6666 9.99992H23.3333C23.7015 9.99992 23.9999 9.70145 23.9999 9.33325C23.9999 8.96505 23.7015 8.66659 23.3333 8.66659H20.6666ZM7.99992 9.33325C7.99992 8.96505 8.29839 8.66659 8.66659 8.66659H11.3333C11.7015 8.66659 11.9999 8.96505 11.9999 9.33325C11.9999 9.70145 11.7015 9.99992 11.3333 9.99992H8.66659C8.29839 9.99992 7.99992 9.70145 7.99992 9.33325ZM21.3807 3.95256C21.5108 4.08271 21.5108 4.29374 21.3807 4.4239L19.2421 6.56243C19.1119 6.69258 18.9009 6.69258 18.7708 6.56243C18.6406 6.43227 18.6406 6.22124 18.7708 6.09108L20.9093 3.95256C21.0395 3.8224 21.2505 3.8224 21.3807 3.95256ZM10.6192 4.42587C10.4885 4.29517 10.4885 4.08325 10.6192 3.95255C10.7499 3.82185 10.9619 3.82185 11.0925 3.95255L13.2291 6.08908C13.3598 6.21978 13.3598 6.43169 13.2291 6.56239C13.0984 6.69312 12.8865 6.69312 12.7557 6.56239L10.6192 4.42587Z" fill="#9A9A9A"/>
</svg>
