<svg width="33" height="32" viewBox="0 0 33 32" fill="none" xmlns="http://www.w3.org/2000/svg">
<path fill-rule="evenodd" clip-rule="evenodd" d="M6.09089 8.28225C6.03653 8.17318 6.17243 8.09132 6.25397 8.14592C6.71604 8.55505 7.53148 9.10058 8.12941 8.28225C8.97201 7.13672 7.20528 6.78212 7.01503 6.75485H6.98785C6.85195 6.70032 5.41137 5.90929 5.16675 3.45448C5.16675 3.34537 5.27547 3.29082 5.35701 3.37265C5.81908 3.91816 7.09657 5.14557 9.29821 5.58198C12.1246 6.14924 10.8989 8.66938 10.5318 9.08892L11.3341 9.89125C12.7279 8.71138 14.5309 7.99992 16.5001 7.99992C18.4692 7.99992 20.2722 8.71138 21.666 9.89125L22.4683 9.08885C22.1012 8.66932 20.8755 6.14924 23.7019 5.58198C25.9036 5.14557 27.1811 3.91816 27.6431 3.37265C27.7247 3.29082 27.8334 3.34537 27.8334 3.45448C27.5888 5.90929 26.1482 6.67298 25.9851 6.75485H25.9579C25.7677 6.78212 24.0009 7.13672 24.8435 8.28225C25.4415 9.10058 26.2569 8.55505 26.719 8.14592C26.8005 8.09132 26.9365 8.17318 26.8821 8.28225C25.8493 10.9625 24.4084 10.6345 23.4531 9.98965L22.6088 10.8341C23.7887 12.2278 24.5001 14.0308 24.5001 15.9999C24.5001 17.969 23.7886 19.772 22.6087 21.1658L23.4531 22.0102C24.4083 21.3654 25.8493 21.0373 26.8821 23.7176C26.9365 23.8266 26.8005 23.9085 26.719 23.8539C26.2569 23.4448 25.4415 22.8993 24.8435 23.7176C24.0009 24.8631 25.7677 25.2177 25.9579 25.245H25.9851C26.1482 25.3269 27.5888 26.0905 27.8334 28.5454C27.8334 28.6544 27.7247 28.709 27.6431 28.6272C27.1811 28.0816 25.9036 26.8542 23.7019 26.4179C20.8757 25.8506 22.1011 23.3307 22.4683 22.911L21.6659 22.1087C20.2721 23.2885 18.4692 23.9999 16.5001 23.9999C14.5309 23.9999 12.728 23.2885 11.3342 22.1087L10.5319 22.911C10.899 23.3307 12.1245 25.8506 9.29821 26.4179C7.09657 26.8542 5.81908 28.0816 5.35701 28.6272C5.27547 28.709 5.16675 28.6544 5.16675 28.5454C5.41137 26.0905 6.85195 25.2995 6.98785 25.245H7.01503C7.20528 25.2177 8.97201 24.8631 8.12941 23.7176C7.53148 22.8993 6.71604 23.4448 6.25397 23.8539C6.17243 23.9085 6.03653 23.8266 6.09089 23.7176C7.12781 21.0264 8.57635 21.3681 9.53915 22.018L10.3914 21.1658C9.21155 19.772 8.50008 17.969 8.50008 15.9999C8.50008 14.0308 9.21148 12.2278 10.3913 10.8341L9.53915 9.98185C8.57628 10.6318 7.1278 10.9733 6.09089 8.28225ZM22.8334 15.9999C22.8334 19.4977 19.9979 22.3333 16.5001 22.3333C13.0023 22.3333 10.1667 19.4977 10.1667 15.9999C10.1667 12.5021 13.0023 9.66658 16.5001 9.66658C19.9979 9.66658 22.8334 12.5021 22.8334 15.9999ZM16.5001 20.6666C19.0774 20.6666 21.1667 18.5772 21.1667 15.9999C21.1667 13.4226 19.0774 11.3333 16.5001 11.3333C13.9227 11.3333 11.8334 13.4226 11.8334 15.9999C11.8334 18.5772 13.9227 20.6666 16.5001 20.6666ZM13.6437 17.8104C13.5945 17.7612 13.5945 17.6815 13.6437 17.6324L15.2761 16.0001L13.6437 14.3677C13.5945 14.3185 13.5945 14.2388 13.6437 14.1896L14.6897 13.1436C14.7389 13.0944 14.8186 13.0944 14.8677 13.1436L16.5001 14.776L18.1324 13.1436C18.1816 13.0944 18.2613 13.0944 18.3105 13.1436L19.3565 14.1896C19.4056 14.2388 19.4056 14.3185 19.3565 14.3677L17.7241 16.0001L19.3565 17.6324C19.4056 17.6815 19.4056 17.7612 19.3565 17.8104L18.3105 18.8564C18.2613 18.9056 18.1816 18.9056 18.1324 18.8564L16.5001 17.2241L14.8677 18.8564C14.8186 18.9056 14.7389 18.9056 14.6897 18.8564L13.6437 17.8104Z" fill="#9A9A9A"/>
</svg>
