<svg width="32" height="32" viewBox="0 0 32 32" fill="none" xmlns="http://www.w3.org/2000/svg">
<path fill-rule="evenodd" clip-rule="evenodd" d="M19.9999 22.1738C23.0193 20.6935 25.098 17.5895 25.098 13.9999C25.098 8.97518 21.0247 4.90188 15.9999 4.90188C10.9752 4.90188 6.90185 8.97518 6.90185 13.9999C6.90185 17.5895 8.98059 20.6935 11.9999 22.1738V23.8913C8.09079 22.3089 5.33325 18.4765 5.33325 13.9999C5.33325 8.10885 10.1089 3.33325 15.9999 3.33325C21.891 3.33325 26.6666 8.10885 26.6666 13.9999C26.6666 18.4765 23.9091 22.3089 19.9999 23.8913V22.1738ZM16.6666 11.1946C17.2553 10.9374 17.6666 10.3501 17.6666 9.66658C17.6666 8.74612 16.9204 7.99992 15.9999 7.99992C15.0795 7.99992 14.3333 8.74612 14.3333 9.66658C14.3333 10.3501 14.7446 10.9374 15.3333 11.1946V12.3333C15.3333 12.5173 15.4825 12.6666 15.6666 12.6666H16.3333C16.5173 12.6666 16.6666 12.5173 16.6666 12.3333V11.1946ZM19.4719 15.3333C19.7291 15.9219 20.3165 16.3333 20.9999 16.3333C21.9204 16.3333 22.6666 15.5871 22.6666 14.6666C22.6666 13.7461 21.9204 12.9999 20.9999 12.9999C20.3165 12.9999 19.7291 13.4113 19.4719 13.9999H18.3333C18.1492 13.9999 17.9999 14.1492 17.9999 14.3333V14.9999C17.9999 15.184 18.1492 15.3333 18.3333 15.3333H19.4719ZM10.9999 12.9999C11.6834 12.9999 12.2707 13.4113 12.5279 13.9999H13.6666C13.8507 13.9999 13.9999 14.1492 13.9999 14.3333V14.9999C13.9999 15.184 13.8507 15.3333 13.6666 15.3333H12.5279C12.2707 15.9219 11.6834 16.3333 10.9999 16.3333C10.0795 16.3333 9.33325 15.5871 9.33325 14.6666C9.33325 13.7461 10.0795 12.9999 10.9999 12.9999ZM15.6351 16.1262C15.6536 16.052 15.7203 15.9999 15.7967 15.9999H16.2031C16.2796 15.9999 16.3463 16.052 16.3648 16.1262L16.6554 17.2885C16.6627 17.3178 16.6779 17.3445 16.6993 17.3659L16.9656 17.6323C16.988 17.6547 17.0036 17.6831 17.0105 17.714L17.3199 19.1064C17.3285 19.1453 17.3507 19.1797 17.3826 19.2036L17.9771 19.6495C17.9922 19.6608 18.0053 19.6746 18.0158 19.6903L18.6386 20.6246C18.6569 20.652 18.6666 20.6841 18.6666 20.7171V27.9495C18.6666 27.9824 18.6569 28.0145 18.6386 28.0419L18.0279 28.9579C18.0097 28.9853 17.9999 29.0175 17.9999 29.0504V29.3333C17.9999 29.7015 17.7015 29.9999 17.3333 29.9999H14.6666C14.2984 29.9999 13.9999 29.7015 13.9999 29.3333V29.0504C13.9999 29.0175 13.9902 28.9853 13.9719 28.9579L13.3613 28.0419C13.343 28.0145 13.3333 27.9824 13.3333 27.9495V20.7171C13.3333 20.6841 13.343 20.652 13.3613 20.6246L13.9841 19.6903C13.9946 19.6746 14.0077 19.6608 14.0228 19.6495L14.6173 19.2036C14.6491 19.1797 14.6713 19.1453 14.68 19.1064L14.9894 17.714C14.9963 17.6831 15.0119 17.6547 15.0343 17.6323L15.3006 17.3659C15.322 17.3445 15.3371 17.3178 15.3445 17.2885L15.6351 16.1262ZM14.9999 22.3333C14.9999 21.781 15.4477 21.3333 15.9999 21.3333C16.5522 21.3333 16.9999 21.781 16.9999 22.3333V26.3333C16.9999 26.8855 16.5522 27.3333 15.9999 27.3333C15.4477 27.3333 14.9999 26.8855 14.9999 26.3333V22.3333Z" fill="#9A9A9A"/>
</svg>
