<svg width="32" height="32" viewBox="0 0 32 32" fill="none" xmlns="http://www.w3.org/2000/svg">
<path fill-rule="evenodd" clip-rule="evenodd" d="M9.2556 7.37056L11.9905 10.3824C12.1822 10.6016 12.4808 10.7873 12.8349 10.791L15.9812 10.9148L15.9999 10.9156L16.0185 10.9148L19.2137 10.791C19.5687 10.7874 19.868 10.6007 20.0597 10.3808L22.7483 7.3717C22.7565 7.37416 22.7646 7.3767 22.7727 7.37943C22.9846 7.4505 23.3765 7.60823 23.6797 7.88103C23.8832 8.06416 24.0919 8.39003 24.2001 8.57136C24.2461 8.64843 24.2329 8.74636 24.1708 8.81056L23.775 9.2197C23.6778 9.32016 23.6519 9.47156 23.71 9.5997L24.494 11.3287C24.556 11.4654 24.7153 11.5244 24.8489 11.46L25.3804 11.2035C25.5046 11.1436 25.6527 11.19 25.7183 11.313C25.827 11.5169 25.9828 11.8277 26.063 12.0743C26.0835 12.1373 26.1113 12.2082 26.1435 12.2829C26.1254 12.3049 26.1031 12.3222 26.0785 12.3338L26.073 12.3364L26.0675 12.3392L22.6301 14.0672C22.3883 14.1821 22.1751 14.3498 22.0055 14.5574L17.9236 19.5549C17.893 19.5923 17.8516 19.615 17.8085 19.6212L16.0314 19.8801C16.0106 19.8832 15.9894 19.8832 15.9686 19.8801L14.1915 19.6212C14.1484 19.615 14.107 19.5923 14.0764 19.5549L9.99453 14.5574C9.82487 14.3498 9.61167 14.1821 9.36987 14.0672L5.93251 12.3392L5.927 12.3364L5.92143 12.3338C5.89685 12.3222 5.87459 12.3049 5.85652 12.2829C5.88875 12.2082 5.91656 12.1373 5.93704 12.0743C6.01722 11.8277 6.17301 11.5169 6.28172 11.313C6.34732 11.19 6.49546 11.1436 6.6196 11.2035L7.1512 11.46C7.28467 11.5244 7.44407 11.4654 7.50607 11.3287L8.29 9.5997C8.34813 9.47156 8.3222 9.32016 8.225 9.2197L7.82927 8.81056C7.7672 8.74636 7.754 8.64843 7.79993 8.57136C7.90807 8.39003 8.11687 8.06416 8.3204 7.88103C8.6236 7.60823 9.01547 7.4505 9.22733 7.37943C9.23673 7.3763 9.24613 7.37336 9.2556 7.37056ZM10.5139 7.3335L12.7019 9.74303L12.7057 9.74716L12.7093 9.75143C12.768 9.81916 12.8261 9.83456 12.8457 9.83456H12.8551L12.8645 9.8349L16.0001 9.9583L19.1845 9.8349L19.1938 9.83456H19.2031C19.2227 9.83456 19.2808 9.81916 19.3395 9.75143L19.3443 9.74583L19.3443 9.7459L21.4997 7.3335H10.5139ZM4.92859 11.7752C3.70427 9.0791 2.66925 7.36103 2.20734 7.55303C1.93131 7.66776 1.93998 8.45016 2.17933 9.67423C1.71674 10.3033 2.41693 13.521 3.84431 17.1914C5.2717 20.8618 6.9208 23.6852 7.67587 23.8082C8.32273 24.8628 8.84033 25.4338 9.11633 25.319C9.68253 25.0837 8.89553 22.0243 7.48433 18.1168L7.48513 18.1171C8.55487 18.5684 9.06767 19.7778 9.27747 20.454C9.34767 20.6802 9.61213 20.7936 9.8006 20.6545C9.94653 20.5467 10.1035 20.4204 10.2174 20.3012C10.3753 20.1358 10.5599 19.8694 10.6495 19.7354C10.6759 19.696 10.7327 19.6944 10.7603 19.733C10.9721 20.031 11.7378 21.0894 12.3588 21.7062C12.7718 22.1164 13.3366 22.5069 13.6454 22.7086C13.7923 22.8046 13.9585 22.8637 14.1312 22.8889L16 23.1611L17.8689 22.8889C18.0415 22.8637 18.2077 22.8046 18.3547 22.7086C18.6635 22.5069 19.2282 22.1164 19.6412 21.7062C20.2622 21.0894 21.028 20.031 21.2397 19.733C21.2673 19.6944 21.3242 19.696 21.3505 19.7354C21.4401 19.8694 21.6247 20.1358 21.7827 20.3012C21.8965 20.4204 22.0535 20.5467 22.1994 20.6545C22.3879 20.7936 22.6524 20.6802 22.7225 20.454C22.9324 19.7778 23.4451 18.5684 24.5149 18.1171L24.5157 18.1168C23.1045 22.0243 22.3175 25.0837 22.8837 25.319C23.1597 25.4338 23.6773 24.8628 24.3241 23.8082C25.0792 23.6852 26.7283 20.8618 28.1557 17.1914C29.5831 13.521 30.2833 10.3033 29.8207 9.67423C30.0601 8.45016 30.0687 7.66776 29.7927 7.55303C29.3318 7.3615 28.3003 9.07143 27.0796 11.7572L27.1175 12.143C27.1277 12.247 27.1323 12.4092 27.0652 12.5794C26.9597 12.8471 26.7571 13.0696 26.4923 13.1962L23.0547 14.9244L23.0491 14.9271L23.0435 14.9297C22.9295 14.9834 22.8278 15.0628 22.7463 15.1626L18.6644 20.16C18.4845 20.3803 18.229 20.5266 17.9464 20.5678L16.1693 20.8266C16.057 20.843 15.943 20.843 15.8307 20.8266L14.0536 20.5678C13.771 20.5266 13.5155 20.3803 13.3356 20.16L9.25373 15.1626C9.1722 15.0628 9.07047 14.9834 8.9564 14.9297L8.95087 14.9271L8.94533 14.9244L5.50765 13.1962C5.24679 13.0714 5.04624 12.8536 4.93951 12.5912C4.86589 12.4102 4.87361 12.2365 4.88679 12.1259L4.92859 11.7752ZM13.8695 11.6783C13.6889 11.6783 13.5176 11.7601 13.4019 11.9016L11.8802 13.7637C11.7076 13.9749 11.6918 14.2766 11.8413 14.5054L14.2761 18.2295C14.389 18.4022 14.5791 18.5059 14.7826 18.5059H17.2174C17.4209 18.5059 17.611 18.4022 17.7239 18.2295L20.1587 14.5054C20.3082 14.2766 20.2924 13.9749 20.1198 13.7637L18.5981 11.9016C18.4824 11.7601 18.3111 11.6783 18.1305 11.6783H13.8695ZM13.1064 14.2024L14.1547 12.9197H17.8453L18.8936 14.2024L16.8917 17.2645H15.1083L13.1064 14.2024ZM16 7.95416H14.3409C14.0586 7.95416 13.8071 8.1361 13.7139 8.40776L13.5981 8.7449C13.5225 8.96516 13.6829 9.1955 13.9117 9.1955H16H18.0883C18.3171 9.1955 18.4775 8.96516 18.4019 8.7449L18.2861 8.40776C18.1929 8.1361 17.9414 7.95416 17.6591 7.95416H16Z" fill="#9A9A9A"/>
</svg>
