<svg width="23" height="20" viewBox="0 0 23 20" fill="none" xmlns="http://www.w3.org/2000/svg">
<path d="M22.0675 9.656V1.07603C22.0675 0.943688 21.9021 0.888546 21.8139 0.9878L12.4399 12.6998C12.3627 12.788 12.4288 12.9314 12.5501 12.9314H19.3215C19.509 12.9314 19.6744 12.8432 19.7847 12.6998L21.9241 10.031C22.0124 9.9317 22.0675 9.79936 22.0675 9.656ZM0.143367 10.042L7.17938 18.8425C7.28966 18.9859 7.46612 19.0631 7.6536 19.0631H14.4249C14.5462 19.0631 14.6124 18.9307 14.5352 18.8425L0.253649 0.998829C0.165423 0.899575 0 0.954717 0 1.08706V9.66702C0.0110282 9.79936 0.0551407 9.9317 0.143367 10.042Z" fill="white"/>
</svg>
