<svg width="144" height="24" viewBox="0 0 144 24" fill="none" xmlns="http://www.w3.org/2000/svg">
<path d="M0.75125 0.599998H4.04725C4.32458 0.599998 4.46325 0.727999 4.46325 0.983999V18.936H13.4233C13.5513 18.936 13.6366 18.9893 13.6793 19.096C13.7433 19.2027 13.7433 19.2987 13.6793 19.384L11.2793 22.488C11.0019 22.8293 10.6606 23 10.2553 23H0.75125C0.644583 23 0.548584 22.968 0.46325 22.904C0.39925 22.8187 0.36725 22.7227 0.36725 22.616V0.983999C0.36725 0.877333 0.39925 0.791999 0.46325 0.727999C0.548584 0.642665 0.644583 0.599998 0.75125 0.599998ZM15.315 11.704C15.315 10.0613 15.6137 8.536 16.211 7.128C16.8297 5.69867 17.651 4.472 18.675 3.448C19.7203 2.40267 20.947 1.592 22.355 1.016C23.763 0.418666 25.2777 0.130665 26.899 0.151999C28.5203 0.173332 30.035 0.493332 31.443 1.112C32.851 1.73067 34.067 2.57333 35.091 3.64C36.1363 4.70667 36.9577 5.95467 37.555 7.384C38.1523 8.792 38.4403 10.296 38.419 11.896C38.3977 13.5173 38.0777 15.032 37.459 16.44C36.8403 17.848 35.9977 19.0747 34.931 20.12C33.8857 21.1653 32.659 21.9867 31.251 22.584C29.843 23.16 28.3283 23.448 26.707 23.448C25.107 23.448 23.603 23.1493 22.195 22.552C20.8083 21.9333 19.603 21.1013 18.579 20.056C17.555 18.9893 16.755 17.7413 16.179 16.312C15.603 14.8827 15.315 13.3467 15.315 11.704ZM19.411 11.864C19.411 12.9093 19.6137 13.9013 20.019 14.84C20.4243 15.7787 20.9683 16.6 21.651 17.304C22.3337 18.008 23.123 18.5627 24.019 18.968C24.915 19.3733 25.875 19.576 26.899 19.576C27.9017 19.5547 28.851 19.3307 29.747 18.904C30.643 18.4773 31.4217 17.912 32.083 17.208C32.7657 16.4827 33.299 15.6507 33.683 14.712C34.067 13.752 34.2483 12.7493 34.227 11.704C34.227 10.6587 34.0243 9.66667 33.619 8.728C33.2137 7.78933 32.6697 6.97867 31.987 6.296C31.3043 5.592 30.5043 5.03733 29.587 4.632C28.691 4.22667 27.7417 4.024 26.739 4.024C25.7363 4.04533 24.787 4.26933 23.891 4.696C22.995 5.10133 22.2163 5.66667 21.555 6.392C20.8937 7.096 20.371 7.91733 19.987 8.856C19.603 9.79467 19.411 10.7973 19.411 11.864ZM42.086 22.616V0.983999C42.086 0.877333 42.118 0.791999 42.182 0.727999C42.2673 0.642665 42.3633 0.599998 42.47 0.599998H45.51C45.9367 0.599998 46.2887 0.770665 46.566 1.112L63.046 22.552C63.11 22.6587 63.11 22.7653 63.046 22.872C63.0033 22.9573 62.918 23 62.79 23H58.726C58.2993 23 57.9473 22.8293 57.67 22.488L52.134 15.256L46.566 22.488C46.2887 22.8293 45.9367 23 45.51 23H42.47C42.3633 23 42.2673 22.968 42.182 22.904C42.118 22.8187 42.086 22.7227 42.086 22.616ZM46.182 7.512V16.088L49.478 11.8L46.182 7.512ZM65.586 0.983999C65.586 0.877333 65.618 0.791999 65.682 0.727999C65.7673 0.642665 65.8633 0.599998 65.97 0.599998H73.106C74.642 0.599998 76.082 0.887999 77.426 1.464C78.77 2.04 79.9433 2.82933 80.946 3.832C81.9487 4.81333 82.7487 5.976 83.346 7.32C83.9647 8.64267 84.2847 10.0613 84.306 11.576C84.3487 13.1547 84.0607 14.6373 83.442 16.024C82.8447 17.4107 82.0233 18.6267 80.978 19.672C79.9327 20.696 78.706 21.5067 77.298 22.104C75.9113 22.7013 74.4287 23 72.85 23H65.97C65.8633 23 65.7673 22.968 65.682 22.904C65.618 22.8187 65.586 22.7227 65.586 22.616V0.983999ZM69.682 18.936H73.106C74.0873 18.936 75.0047 18.7547 75.858 18.392C76.7327 18.008 77.49 17.496 78.13 16.856C78.7913 16.1947 79.3033 15.4373 79.666 14.584C80.05 13.7093 80.242 12.7813 80.242 11.8C80.242 10.8187 80.05 9.90133 79.666 9.048C79.3033 8.17333 78.7913 7.416 78.13 6.776C77.49 6.11467 76.7327 5.60267 75.858 5.24C75.0047 4.856 74.0873 4.664 73.106 4.664H69.682V18.936ZM88.4075 0.599998H91.7035C91.9808 0.599998 92.1195 0.727999 92.1195 0.983999V22.616C92.1195 22.872 91.9808 23 91.7035 23H88.4075C88.3008 23 88.2048 22.968 88.1195 22.904C88.0555 22.8187 88.0235 22.7227 88.0235 22.616V0.983999C88.0235 0.877333 88.0555 0.791999 88.1195 0.727999C88.2048 0.642665 88.3008 0.599998 88.4075 0.599998ZM96.7423 22.616V0.983999C96.7423 0.877333 96.7743 0.791999 96.8383 0.727999C96.9236 0.642665 97.0196 0.599998 97.1263 0.599998H100.166C100.593 0.599998 100.945 0.770665 101.222 1.112L112.742 16.088V0.983999C112.742 0.727999 112.87 0.599998 113.126 0.599998H116.422C116.678 0.599998 116.806 0.727999 116.806 0.983999V22.616C116.806 22.872 116.678 23 116.422 23H113.382C112.956 23 112.604 22.8293 112.326 22.488L100.838 7.512V22.616C100.838 22.872 100.7 23 100.422 23H97.1263C97.0196 23 96.9236 22.968 96.8383 22.904C96.7743 22.8187 96.7423 22.7227 96.7423 22.616ZM120.534 11.704C120.534 10.0613 120.832 8.536 121.43 7.128C122.048 5.69867 122.87 4.472 123.894 3.448C124.939 2.40267 126.166 1.592 127.574 1.016C128.982 0.418666 130.496 0.130665 132.118 0.151999C133.675 0.173332 135.136 0.471998 136.502 1.048C137.867 1.60267 139.062 2.38133 140.086 3.384C140.256 3.55467 140.267 3.72533 140.118 3.896L138.07 6.552C138.006 6.65867 137.91 6.72267 137.782 6.744C137.675 6.744 137.579 6.69067 137.494 6.584C136.811 5.79467 135.99 5.16533 135.03 4.696C134.07 4.22667 133.046 4.00267 131.958 4.024C130.955 4.024 130.006 4.23733 129.11 4.664C128.214 5.09067 127.435 5.656 126.774 6.36C126.112 7.064 125.59 7.896 125.206 8.856C124.822 9.79467 124.63 10.7973 124.63 11.864C124.63 12.9093 124.832 13.9013 125.238 14.84C125.643 15.7787 126.187 16.6 126.87 17.304C127.552 18.008 128.342 18.5627 129.238 18.968C130.134 19.3733 131.094 19.576 132.118 19.576C132.95 19.5547 133.739 19.3947 134.486 19.096C135.254 18.7973 135.947 18.392 136.566 17.88C137.206 17.368 137.75 16.7707 138.198 16.088C138.646 15.384 138.976 14.6267 139.19 13.816H132.95C132.843 13.816 132.758 13.7733 132.694 13.688C132.651 13.5813 132.662 13.4747 132.726 13.368L134.774 10.36C135.051 9.976 135.414 9.784 135.862 9.784H143.446C143.51 10.1467 143.552 10.4987 143.574 10.84C143.616 11.1813 143.627 11.5333 143.606 11.896C143.584 13.5173 143.264 15.032 142.646 16.44C142.048 17.848 141.216 19.0747 140.15 20.12C139.104 21.1653 137.878 21.9867 136.47 22.584C135.062 23.16 133.547 23.448 131.926 23.448C130.326 23.448 128.822 23.1493 127.414 22.552C126.027 21.9333 124.822 21.1013 123.798 20.056C122.774 18.9893 121.974 17.7413 121.398 16.312C120.822 14.8827 120.534 13.3467 120.534 11.704Z" fill="white"/>
</svg>
