<svg width="122" height="872" viewBox="0 0 122 872" fill="none" xmlns="http://www.w3.org/2000/svg">
<mask id="path-1-outside-1_1_183" maskUnits="userSpaceOnUse" x="0.387657" y="-5.24537e-06" width="122" height="872" fill="black">
<rect fill="white" x="0.387657" y="-5.24537e-06" width="122" height="872"/>
<path d="M118.812 30.0649L31.2593 57.9175L31.2593 58.9866L118.812 86.8954L118.812 113.904L3.57554 74.1789L3.57554 42.7814L118.812 3L118.812 30.0649ZM3.57554 132.318L3.57554 106.209L118.812 145.991L118.812 177.388L3.57554 217.113L3.57554 191.005L92.4788 162.14L92.4788 161.239L3.57554 132.318ZM48.8712 130.686L48.8712 192.356L29.8526 192.356L29.8527 130.686L48.8712 130.686ZM3.57554 230.983L118.812 230.983L118.812 255.347L23.6632 255.347L23.6632 304.751L3.57553 304.751L3.57554 230.983ZM61.1939 422.294C48.6274 422.294 37.9365 419.912 29.1212 415.148C20.3058 410.422 13.5725 403.97 8.92098 395.792C4.30701 387.652 2.00003 378.499 2.00003 368.333C2.00003 358.093 4.32577 348.902 8.97725 340.762C13.6287 332.622 20.3621 326.189 29.1774 321.462C37.9927 316.736 48.6649 314.372 61.1939 314.372C73.7604 314.372 84.4513 316.736 93.2666 321.462C102.082 326.189 108.796 332.622 113.41 340.762C118.062 348.902 120.388 358.093 120.388 368.333C120.388 378.499 118.062 387.652 113.41 395.792C108.796 403.97 102.082 410.422 93.2665 415.148C84.4512 419.912 73.7603 422.294 61.1939 422.294ZM61.1939 397.593C69.3339 397.593 76.1986 396.374 81.7879 393.935C87.3772 391.534 91.616 388.14 94.5044 383.751C97.3929 379.362 98.8371 374.223 98.8371 368.333C98.8371 362.444 97.3929 357.305 94.5044 352.916C91.616 348.527 87.3772 345.113 81.7879 342.675C76.1986 340.274 69.3339 339.074 61.1939 339.074C53.0538 339.074 46.1891 340.274 40.5998 342.675C35.0105 345.113 30.7717 348.527 27.8833 352.916C24.9948 357.305 23.5506 362.444 23.5506 368.333C23.5506 374.223 24.9948 379.362 27.8833 383.751C30.7717 388.14 35.0105 391.534 40.5998 393.935C46.1891 396.374 53.0538 397.593 61.1939 397.593ZM3.57553 440.342L118.812 440.342L118.812 485.807C118.812 494.509 117.255 501.937 114.142 508.089C111.066 514.278 106.696 518.986 101.032 522.212C95.4047 525.476 88.7839 527.107 81.169 527.107C73.5165 527.107 66.9332 525.457 61.4189 522.156C55.9422 518.855 51.7408 514.072 48.8149 507.807C45.889 501.58 44.426 494.041 44.426 485.188L44.426 454.747L64.0072 454.747L64.0072 481.249C64.0072 485.9 64.6449 489.764 65.9203 492.84C67.1958 495.916 69.1089 498.204 71.6597 499.705C74.2105 501.243 77.3802 502.012 81.169 502.012C84.9952 502.012 88.2212 501.243 90.847 499.705C93.4729 498.204 95.461 495.897 96.8114 492.784C98.1994 489.708 98.8933 485.825 98.8933 481.136L98.8933 464.706L3.57553 464.706L3.57553 440.342ZM56.0172 502.575L3.57552 531.215L3.57552 504.319L56.0172 476.297L56.0172 502.575ZM3.57552 564.188L3.57552 538.08L118.812 577.861L118.812 609.258L3.57552 648.984L3.57552 622.875L92.4788 594.01L92.4788 593.11L3.57552 564.188ZM48.8712 562.556L48.8712 624.226L29.8526 624.226L29.8526 562.556L48.8712 562.556ZM118.812 759.24L3.57551 759.24L3.57551 738.196L76.1048 688.062L76.1048 687.217L3.57552 687.217L3.57552 662.853L118.812 662.853L118.812 684.235L46.3391 733.976L46.3391 734.989L118.812 734.989L118.812 759.24ZM98.7245 774.981L118.812 774.981L118.812 869.624L98.7245 869.624L98.7245 834.344L3.57551 834.344L3.57551 810.261L98.7245 810.261L98.7245 774.981Z"/>
</mask>
<path d="M118.812 30.0649L31.2593 57.9175L31.2593 58.9866L118.812 86.8954L118.812 113.904L3.57554 74.1789L3.57554 42.7814L118.812 3L118.812 30.0649ZM3.57554 132.318L3.57554 106.209L118.812 145.991L118.812 177.388L3.57554 217.113L3.57554 191.005L92.4788 162.14L92.4788 161.239L3.57554 132.318ZM48.8712 130.686L48.8712 192.356L29.8526 192.356L29.8527 130.686L48.8712 130.686ZM3.57554 230.983L118.812 230.983L118.812 255.347L23.6632 255.347L23.6632 304.751L3.57553 304.751L3.57554 230.983ZM61.1939 422.294C48.6274 422.294 37.9365 419.912 29.1212 415.148C20.3058 410.422 13.5725 403.97 8.92098 395.792C4.30701 387.652 2.00003 378.499 2.00003 368.333C2.00003 358.093 4.32577 348.902 8.97725 340.762C13.6287 332.622 20.3621 326.189 29.1774 321.462C37.9927 316.736 48.6649 314.372 61.1939 314.372C73.7604 314.372 84.4513 316.736 93.2666 321.462C102.082 326.189 108.796 332.622 113.41 340.762C118.062 348.902 120.388 358.093 120.388 368.333C120.388 378.499 118.062 387.652 113.41 395.792C108.796 403.97 102.082 410.422 93.2665 415.148C84.4512 419.912 73.7603 422.294 61.1939 422.294ZM61.1939 397.593C69.3339 397.593 76.1986 396.374 81.7879 393.935C87.3772 391.534 91.616 388.14 94.5044 383.751C97.3929 379.362 98.8371 374.223 98.8371 368.333C98.8371 362.444 97.3929 357.305 94.5044 352.916C91.616 348.527 87.3772 345.113 81.7879 342.675C76.1986 340.274 69.3339 339.074 61.1939 339.074C53.0538 339.074 46.1891 340.274 40.5998 342.675C35.0105 345.113 30.7717 348.527 27.8833 352.916C24.9948 357.305 23.5506 362.444 23.5506 368.333C23.5506 374.223 24.9948 379.362 27.8833 383.751C30.7717 388.14 35.0105 391.534 40.5998 393.935C46.1891 396.374 53.0538 397.593 61.1939 397.593ZM3.57553 440.342L118.812 440.342L118.812 485.807C118.812 494.509 117.255 501.937 114.142 508.089C111.066 514.278 106.696 518.986 101.032 522.212C95.4047 525.476 88.7839 527.107 81.169 527.107C73.5165 527.107 66.9332 525.457 61.4189 522.156C55.9422 518.855 51.7408 514.072 48.8149 507.807C45.889 501.58 44.426 494.041 44.426 485.188L44.426 454.747L64.0072 454.747L64.0072 481.249C64.0072 485.9 64.6449 489.764 65.9203 492.84C67.1958 495.916 69.1089 498.204 71.6597 499.705C74.2105 501.243 77.3802 502.012 81.169 502.012C84.9952 502.012 88.2212 501.243 90.847 499.705C93.4729 498.204 95.461 495.897 96.8114 492.784C98.1994 489.708 98.8933 485.825 98.8933 481.136L98.8933 464.706L3.57553 464.706L3.57553 440.342ZM56.0172 502.575L3.57552 531.215L3.57552 504.319L56.0172 476.297L56.0172 502.575ZM3.57552 564.188L3.57552 538.08L118.812 577.861L118.812 609.258L3.57552 648.984L3.57552 622.875L92.4788 594.01L92.4788 593.11L3.57552 564.188ZM48.8712 562.556L48.8712 624.226L29.8526 624.226L29.8526 562.556L48.8712 562.556ZM118.812 759.24L3.57551 759.24L3.57551 738.196L76.1048 688.062L76.1048 687.217L3.57552 687.217L3.57552 662.853L118.812 662.853L118.812 684.235L46.3391 733.976L46.3391 734.989L118.812 734.989L118.812 759.24ZM98.7245 774.981L118.812 774.981L118.812 869.624L98.7245 869.624L98.7245 834.344L3.57551 834.344L3.57551 810.261L98.7245 810.261L98.7245 774.981Z" stroke="white" stroke-opacity="0.04" stroke-width="3" mask="url(#path-1-outside-1_1_183)"/>
</svg>
