<svg width="176" height="113" viewBox="0 0 176 113" fill="none" xmlns="http://www.w3.org/2000/svg">
<path d="M131.666 34.6639V0.552679C131.666 0.0265419 131.008 -0.192683 130.658 0.20192L93.3895 46.7651C93.0826 47.1158 93.3457 47.6858 93.828 47.6858H120.749C121.494 47.6858 122.152 47.3351 122.59 46.7651L131.096 36.1546C131.447 35.76 131.666 35.2339 131.666 34.6639ZM44.5026 36.1985L72.4756 71.1866C72.914 71.7566 73.6155 72.0635 74.3609 72.0635H101.282C101.764 72.0635 102.027 71.5374 101.72 71.1866L44.941 0.245767C44.5903 -0.148836 43.9326 0.0703894 43.9326 0.596527V34.7078C43.9765 35.2339 44.1518 35.76 44.5026 36.1985Z" fill="white"/>
<path d="M156.394 92.5389H162.664V111.743C162.664 112.006 162.883 112.181 163.103 112.181H166.698C166.961 112.181 167.136 111.962 167.136 111.743V92.5389H175.028C175.248 92.5389 175.379 92.2758 175.248 92.1004L172.529 88.7244C172.31 88.4613 171.959 88.2859 171.608 88.2859H156.35C156.087 88.2859 155.912 88.5052 155.912 88.7244V92.1004C155.956 92.3197 156.131 92.5389 156.394 92.5389ZM4.82293 111.787L23.2377 88.7244C23.3693 88.549 23.2377 88.2859 23.0185 88.2859H18.4586C18.1079 88.2859 17.7571 88.4613 17.5379 88.7244L4.47217 105.079V88.7244C4.47217 88.4613 4.25294 88.2859 4.03372 88.2859H0.438448C0.175379 88.2859 0 88.5052 0 88.7244V111.787C0 112.05 0.219224 112.225 0.438448 112.225H3.94603C4.25294 112.225 4.6037 112.05 4.82293 111.787ZM17.8448 111.787L24.1585 103.851L30.516 111.787C30.7352 112.05 31.0859 112.225 31.4367 112.225H34.9443C35.2074 112.225 35.3827 112.006 35.3827 111.787V88.7244C35.3827 88.4613 35.1635 88.2859 34.9443 88.2859H32.0067C31.3052 88.2859 30.6037 88.5929 30.1652 89.1628L12.1012 111.787C11.9696 111.962 12.1012 112.225 12.3204 112.225H16.8802C17.2748 112.225 17.5818 112.05 17.8448 111.787ZM30.9106 94.9504V105.561L26.6576 100.256L30.9106 94.9504ZM133.727 111.787L115.312 88.7244C115.093 88.4613 114.742 88.2859 114.391 88.2859H110.883C110.62 88.2859 110.445 88.5052 110.445 88.7244V111.787C110.445 112.05 110.664 112.225 110.883 112.225H114.391C114.742 112.225 115.093 112.05 115.312 111.787L121.669 103.851L127.983 111.787C128.202 112.05 128.553 112.225 128.904 112.225H133.507C133.77 112.225 133.902 111.962 133.727 111.787ZM119.17 100.256L114.917 105.561V94.9504L119.17 100.256ZM68.4855 87.6721C61.5581 87.6721 55.9021 93.2843 55.9021 100.256C55.9021 107.183 61.5142 112.839 68.4855 112.839C75.413 112.839 81.069 107.227 81.069 100.256C81.069 93.2843 75.413 87.6721 68.4855 87.6721ZM68.4855 108.542C64.0134 108.542 60.4181 104.815 60.4181 100.256C60.4181 95.6519 64.0134 91.9689 68.4855 91.9689C72.9577 91.9689 76.553 95.6957 76.553 100.256C76.553 104.815 72.9577 108.542 68.4855 108.542ZM148.327 88.7244V105.079L135.261 88.7244C135.042 88.4613 134.691 88.2859 134.34 88.2859H130.833C130.57 88.2859 130.394 88.5052 130.394 88.7244V99.8171C130.394 100.08 130.482 100.343 130.657 100.562L134.384 105.254C134.56 105.473 134.867 105.342 134.867 105.079V95.4327L147.932 111.787C148.151 112.05 148.502 112.225 148.853 112.225H152.361C152.624 112.225 152.799 112.006 152.799 111.787V88.7244C152.799 88.4613 152.58 88.2859 152.361 88.2859H148.765C148.546 88.2859 148.327 88.4613 148.327 88.7244ZM104.394 93.7227V88.7244C104.394 88.4613 104.175 88.2859 103.956 88.2859H85.5412C85.2781 88.2859 85.1027 88.5052 85.1027 88.7244V111.787C85.1027 112.05 85.3219 112.225 85.5412 112.225H89.1364C89.3995 112.225 89.5749 112.006 89.5749 111.787V92.5827H99.8784L92.9071 101.308C92.7755 101.483 92.7755 101.702 92.9071 101.878L100.843 111.831C101.062 112.094 101.413 112.269 101.764 112.269H106.367C106.587 112.269 106.718 112.006 106.587 111.831L98.4754 101.527L104.131 94.4242C104.307 94.2488 104.394 93.9858 104.394 93.7227ZM41.2579 112.225H51.9122C52.263 112.225 52.6137 112.05 52.833 111.787L55.5075 108.411C55.639 108.235 55.5075 107.972 55.2883 107.972H45.2917V88.7682C45.2917 88.5052 45.0724 88.3298 44.8532 88.3298H41.2579C40.9949 88.3298 40.8195 88.549 40.8195 88.7682V111.831C40.8195 112.006 40.9949 112.225 41.2579 112.225Z" fill="white"/>
</svg>
